<svg width="229" height="108" viewBox="0 0 229 108" fill="none" xmlns="http://www.w3.org/2000/svg">
<path d="M102.787 36.1926C102.787 48.1858 93.0646 57.9082 81.0714 57.9082C69.0782 57.9082 59.3558 48.1858 59.3558 36.1926C59.3558 24.1994 69.0782 14.477 81.0714 14.477C93.0646 14.477 102.787 24.1994 102.787 36.1926Z" fill="black"/>
<path d="M5.79082 17.3725H0V72.3852C24.3549 72.1338 36.6329 74.8753 57.9082 81.0714C39.9506 72.0505 29.4179 67.6459 5.79082 66.5944V17.3725Z" fill="black"/>
<path d="M59.3559 27.5064L39.088 26.0587L78.176 4.34311L114.369 8.68622L95.5485 20.2679L59.3559 27.5064Z" fill="black"/>
<path d="M18.8202 7.23853H11.5817V59.3559C31.3886 63.112 41.6489 67.4454 59.3559 76.7283C46.957 65.7791 39.5626 60.0323 18.8202 56.4605V7.23853Z" fill="black"/>
<path d="M23.1632 0L53.565 11.5816L28.954 28.9541L53.565 33.2972C53.9785 45.1403 57.6742 50.6784 68.042 59.3559V82.5191C54.8995 64.6458 46.0518 56.4586 23.1632 50.6696V0Z" fill="black"/>
<path d="M78.0983 66.0963V65.2045H87.7168C89.9463 65.2045 91.6661 65.7035 92.8764 66.7015C94.0867 67.6994 94.6918 69.0371 94.6918 70.7145V71.447C94.6918 72.721 94.3415 73.8039 93.6408 74.6957C92.9401 75.5875 91.9316 76.2245 90.6151 76.6067L94.5963 84.1868C94.8511 84.654 95.0422 84.9937 95.1696 85.206C95.297 85.4184 95.4138 85.5564 95.5199 85.6201C95.6473 85.6625 95.8172 85.705 96.0295 85.7475L97.4628 85.9704V86.8622H91.5069L86.6976 76.9889H84.3726V84.1868C84.3726 84.9088 84.4045 85.344 84.4682 85.4927C84.5319 85.6201 84.7336 85.705 85.0733 85.7475L86.825 85.9704V86.8622H78.0983V85.9704L79.85 85.7475C80.1897 85.705 80.3914 85.6201 80.4551 85.4927C80.5188 85.344 80.5507 84.9088 80.5507 84.1868V67.8799C80.5507 67.158 80.5188 66.7333 80.4551 66.6059C80.3914 66.4573 80.1897 66.3617 79.85 66.3193L78.0983 66.0963ZM87.7168 66.3193H84.3726V75.8741H87.7168C88.6511 75.8741 89.3624 75.5875 89.8507 75.0142C90.3603 74.4197 90.6151 73.3368 90.6151 71.7655V70.396C90.6151 68.8248 90.3603 67.7525 89.8507 67.1792C89.3624 66.6059 88.6511 66.3193 87.7168 66.3193Z" fill="black"/>
<path d="M103.43 85.9704V86.8622H97.2834V85.9704L99.0351 85.7475C99.2686 85.705 99.4385 85.6625 99.5447 85.6201C99.6508 85.5564 99.7464 85.4184 99.8313 85.206C99.9162 84.9937 100.033 84.654 100.182 84.1868L106.265 65.2045H109.004L115.119 84.1868C115.268 84.654 115.384 84.9937 115.469 85.206C115.554 85.4184 115.65 85.5564 115.756 85.6201C115.883 85.6625 116.053 85.705 116.266 85.7475L118.017 85.9704V86.8622H109.227V85.9704L110.979 85.7475C111.318 85.705 111.499 85.6201 111.52 85.4927C111.563 85.344 111.467 84.9088 111.233 84.1868L110.023 80.2375H102.666L101.424 84.1868C101.211 84.9088 101.116 85.344 101.137 85.4927C101.158 85.6201 101.339 85.705 101.679 85.7475L103.43 85.9704ZM103.048 79.1228H109.673L106.392 68.5487L103.048 79.1228Z" fill="black"/>
<path d="M119.185 66.0963V65.2045H127.912V66.0963L126.16 66.3193C125.821 66.3617 125.619 66.4573 125.555 66.6059C125.492 66.7333 125.46 67.158 125.46 67.8799V76.4474L133.008 67.8799C133.624 67.1792 133.942 66.7546 133.964 66.6059C134.006 66.4573 133.857 66.3617 133.518 66.3193L131.766 66.0963V65.2045H138.231V66.0963L136.48 66.3193C136.267 66.3405 136.097 66.383 135.97 66.4467C135.843 66.5104 135.683 66.6484 135.492 66.8607C135.301 67.073 134.993 67.4128 134.569 67.8799L130.11 72.9121L135.62 84.1868C135.853 84.6327 136.034 84.9618 136.161 85.1742C136.289 85.3865 136.437 85.5245 136.607 85.5882C136.777 85.6519 137.01 85.705 137.308 85.7475L138.741 85.9704V86.8622H132.69L127.53 75.8423L125.46 78.1991V84.1868C125.46 84.9088 125.492 85.344 125.555 85.4927C125.619 85.6201 125.821 85.705 126.16 85.7475L127.912 85.9704V86.8622H119.185V85.9704L120.937 85.7475C121.277 85.705 121.479 85.6201 121.542 85.4927C121.606 85.344 121.638 84.9088 121.638 84.1868V67.8799C121.638 67.158 121.606 66.7333 121.542 66.6059C121.479 66.4573 121.277 66.3617 120.937 66.3193L119.185 66.0963Z" fill="black"/>
<path d="M147.209 66.0963V65.2045H156C157.698 65.2045 159.047 65.4381 160.045 65.9052C161.042 66.3724 161.754 66.9881 162.178 67.7525C162.624 68.5169 162.847 69.3662 162.847 70.3005V71.1604C162.847 72.2645 162.497 73.22 161.796 74.0269C161.117 74.8125 160.119 75.3751 158.802 75.7149C160.416 75.9909 161.648 76.5642 162.497 77.4347C163.367 78.3053 163.803 79.3988 163.803 80.7152V81.607C163.803 82.5625 163.58 83.4437 163.134 84.2505C162.688 85.0362 161.945 85.6731 160.904 86.1615C159.885 86.6286 158.516 86.8622 156.796 86.8622H147.209V85.9704L148.961 85.7475C149.301 85.705 149.502 85.6201 149.566 85.4927C149.63 85.344 149.662 84.9088 149.662 84.1868V67.8799C149.662 67.158 149.63 66.7333 149.566 66.6059C149.502 66.4573 149.301 66.3617 148.961 66.3193L147.209 66.0963ZM156 66.3193H153.484V75.2371H156C156.913 75.2371 157.603 74.9293 158.07 74.3135C158.537 73.6765 158.771 72.6786 158.771 71.3196V70.3005C158.771 68.9203 158.537 67.9117 158.07 67.2748C157.603 66.6378 156.913 66.3193 156 66.3193ZM156.796 76.3519H153.484V85.7475H156.796C157.751 85.7475 158.473 85.429 158.962 84.792C159.471 84.1338 159.726 83.0721 159.726 81.607V80.556C159.726 77.7532 158.749 76.3519 156.796 76.3519Z" fill="black"/>
<path d="M180.148 66.0963V65.2045H186.327V66.0963L184.575 66.3193C184.236 66.3617 184.034 66.4573 183.97 66.6059C183.906 66.7333 183.875 67.158 183.875 67.8799V79.505C183.875 82.0529 183.333 83.9745 182.25 85.2697C181.189 86.5437 179.554 87.1807 177.346 87.1807C174.776 87.1807 172.706 86.48 171.135 85.0786C169.564 83.6772 168.778 81.6601 168.778 79.0272V67.8799C168.778 67.158 168.746 66.7333 168.682 66.6059C168.619 66.4573 168.417 66.3617 168.077 66.3193L166.326 66.0963V65.2045H175.052V66.0963L173.301 66.3193C172.961 66.3617 172.759 66.4573 172.695 66.6059C172.632 66.7333 172.6 67.158 172.6 67.8799V79.2502C172.6 81.6283 173.035 83.3481 173.906 84.4098C174.776 85.4714 176.018 86.0023 177.632 86.0023C179.203 86.0023 180.424 85.5033 181.295 84.5053C182.165 83.4861 182.601 81.8406 182.601 79.5687V67.8799C182.601 67.158 182.569 66.7333 182.505 66.6059C182.441 66.4573 182.24 66.3617 181.9 66.3193L180.148 66.0963Z" fill="black"/>
<path d="M188.607 66.0963V65.2045H197.334V66.0963L195.582 66.3193C195.243 66.3617 195.041 66.4573 194.977 66.6059C194.913 66.7333 194.882 67.158 194.882 67.8799V76.4474L202.43 67.8799C203.046 67.1792 203.364 66.7546 203.385 66.6059C203.428 66.4573 203.279 66.3617 202.94 66.3193L201.188 66.0963V65.2045H207.653V66.0963L205.902 66.3193C205.689 66.3405 205.519 66.383 205.392 66.4467C205.265 66.5104 205.105 66.6484 204.914 66.8607C204.723 67.073 204.415 67.4128 203.991 67.8799L199.532 72.9121L205.042 84.1868C205.275 84.6327 205.456 84.9618 205.583 85.1742C205.71 85.3865 205.859 85.5245 206.029 85.5882C206.199 85.6519 206.432 85.705 206.73 85.7475L208.163 85.9704V86.8622H202.111L196.952 75.8423L194.882 78.1991V84.1868C194.882 84.9088 194.913 85.344 194.977 85.4927C195.041 85.6201 195.243 85.705 195.582 85.7475L197.334 85.9704V86.8622H188.607V85.9704L190.359 85.7475C190.699 85.705 190.9 85.6201 190.964 85.4927C191.028 85.344 191.06 84.9088 191.06 84.1868V67.8799C191.06 67.158 191.028 66.7333 190.964 66.6059C190.9 66.4573 190.699 66.3617 190.359 66.3193L188.607 66.0963Z" fill="black"/>
<path d="M222.822 66.0963V65.2045H229V66.0963L227.249 66.3193C226.909 66.3617 226.707 66.4573 226.644 66.6059C226.58 66.7333 226.548 67.158 226.548 67.8799V79.505C226.548 82.0529 226.007 83.9745 224.924 85.2697C223.862 86.5437 222.227 87.1807 220.019 87.1807C217.45 87.1807 215.379 86.48 213.808 85.0786C212.237 83.6772 211.451 81.6601 211.451 79.0272V67.8799C211.451 67.158 211.419 66.7333 211.356 66.6059C211.292 66.4573 211.09 66.3617 210.751 66.3193L208.999 66.0963V65.2045H217.726V66.0963L215.974 66.3193C215.634 66.3617 215.433 66.4573 215.369 66.6059C215.305 66.7333 215.273 67.158 215.273 67.8799V79.2502C215.273 81.6283 215.709 83.3481 216.579 84.4098C217.45 85.4714 218.692 86.0023 220.305 86.0023C221.877 86.0023 223.098 85.5033 223.968 84.5053C224.839 83.4861 225.274 81.8406 225.274 79.5687V67.8799C225.274 67.158 225.242 66.7333 225.178 66.6059C225.115 66.4573 224.913 66.3617 224.573 66.3193L222.822 66.0963Z" fill="black"/>
<path d="M78 97.5501V97.1448H82.3576C83.4192 97.1448 84.2106 97.3909 84.7318 97.8831C85.2626 98.3657 85.5281 99.0123 85.5281 99.823V100.156C85.5281 100.967 85.2626 101.618 84.7318 102.11C84.2106 102.603 83.4192 102.849 82.3576 102.849H80.852V105.773C80.852 106.101 80.8665 106.299 80.8954 106.367C80.9244 106.425 81.016 106.463 81.1705 106.482L82.2562 106.584V106.989H78V106.584L78.7962 106.482C78.9507 106.463 79.0423 106.425 79.0713 106.367C79.1003 106.299 79.1147 106.101 79.1147 105.773V98.3608C79.1147 98.0327 79.1003 97.8397 79.0713 97.7818C79.0423 97.7142 78.9507 97.6708 78.7962 97.6515L78 97.5501ZM82.3576 97.6515H80.852V102.342H82.3576C82.7822 102.342 83.1056 102.173 83.3276 101.835C83.5592 101.498 83.675 101.034 83.675 100.446V99.5335C83.675 98.9447 83.5592 98.4863 83.3276 98.1582C83.1056 97.8204 82.7822 97.6515 82.3576 97.6515Z" fill="black"/>
<path d="M92.5623 97.5501V97.1448H95.3709V97.5501L94.5746 97.6515C94.4202 97.6708 94.3285 97.7142 94.2996 97.7818C94.2706 97.8397 94.2561 98.0327 94.2561 98.3608V103.645C94.2561 104.803 94.01 105.677 93.5178 106.265C93.0352 106.844 92.2921 107.134 91.2883 107.134C90.1205 107.134 89.1795 106.815 88.4653 106.178C87.7511 105.541 87.394 104.625 87.394 103.428V98.3608C87.394 98.0327 87.3795 97.8397 87.3506 97.7818C87.3216 97.7142 87.2299 97.6708 87.0755 97.6515L86.2793 97.5501V97.1448H90.246V97.5501L89.4498 97.6515C89.2953 97.6708 89.2036 97.7142 89.1747 97.7818C89.1457 97.8397 89.1313 98.0327 89.1313 98.3608V103.529C89.1313 104.61 89.3291 105.392 89.7248 105.874C90.1205 106.357 90.6851 106.598 91.4186 106.598C92.1328 106.598 92.6878 106.371 93.0835 105.918C93.4792 105.455 93.6771 104.707 93.6771 103.674V98.3608C93.6771 98.0327 93.6626 97.8397 93.6336 97.7818C93.6047 97.7142 93.513 97.6708 93.3586 97.6515L92.5623 97.5501Z" fill="black"/>
<path d="M96.4073 97.5501V97.1448H100.403C101.175 97.1448 101.788 97.2509 102.242 97.4633C102.695 97.6756 103.019 97.9555 103.212 98.3029C103.414 98.6504 103.516 99.0364 103.516 99.4611V99.852C103.516 100.354 103.356 100.788 103.038 101.155C102.729 101.512 102.275 101.768 101.677 101.922C102.41 102.048 102.97 102.308 103.356 102.704C103.752 103.1 103.95 103.597 103.95 104.195V104.6C103.95 105.035 103.849 105.435 103.646 105.802C103.443 106.159 103.105 106.449 102.632 106.671C102.169 106.883 101.547 106.989 100.765 106.989H96.4073V106.584L97.2036 106.482C97.358 106.463 97.4497 106.425 97.4786 106.367C97.5076 106.299 97.5221 106.101 97.5221 105.773V98.3608C97.5221 98.0327 97.5076 97.8397 97.4786 97.7818C97.4497 97.7142 97.358 97.6708 97.2036 97.6515L96.4073 97.5501ZM100.403 97.6515H99.2593V101.705H100.403C100.818 101.705 101.132 101.565 101.344 101.285C101.556 100.996 101.662 100.542 101.662 99.9244V99.4611C101.662 98.8338 101.556 98.3753 101.344 98.0858C101.132 97.7962 100.818 97.6515 100.403 97.6515ZM100.765 102.212H99.2593V106.482H100.765C101.199 106.482 101.527 106.338 101.749 106.048C101.981 105.749 102.097 105.266 102.097 104.6V104.123C102.097 102.849 101.653 102.212 100.765 102.212Z" fill="black"/>
<path d="M111.799 104.499H112.205V106.989H105.328V106.584L106.124 106.482C106.279 106.463 106.371 106.425 106.4 106.367C106.428 106.299 106.443 106.101 106.443 105.773V98.3608C106.443 98.0327 106.428 97.8397 106.4 97.7818C106.371 97.7142 106.279 97.6708 106.124 97.6515L105.328 97.5501V97.1448H109.295V97.5501L108.499 97.6515C108.344 97.6708 108.253 97.7142 108.224 97.7818C108.195 97.8397 108.18 98.0327 108.18 98.3608V106.482H110.554C110.786 106.482 110.95 106.478 111.047 106.468C111.143 106.449 111.206 106.415 111.235 106.367C111.273 106.309 111.307 106.222 111.336 106.106L111.799 104.499Z" fill="black"/>
<path d="M113.033 97.5501V97.1448H117V97.5501L116.204 97.6515C116.049 97.6708 115.958 97.7142 115.929 97.7818C115.9 97.8397 115.885 98.0327 115.885 98.3608V105.773C115.885 106.101 115.9 106.299 115.929 106.367C115.958 106.425 116.049 106.463 116.204 106.482L117 106.584V106.989H113.033V106.584L113.83 106.482C113.984 106.463 114.076 106.425 114.105 106.367C114.134 106.299 114.148 106.101 114.148 105.773V98.3608C114.148 98.0327 114.134 97.8397 114.105 97.7818C114.076 97.7142 113.984 97.6708 113.83 97.6515L113.033 97.5501Z" fill="black"/>
<path d="M122.724 107.134C121.836 107.134 121.083 106.946 120.465 106.569C119.847 106.183 119.379 105.643 119.061 104.948C118.742 104.253 118.583 103.442 118.583 102.516V101.604C118.583 100.677 118.723 99.8713 119.003 99.186C119.292 98.4911 119.722 97.9555 120.291 97.5791C120.861 97.193 121.575 97 122.434 97C123.167 97 123.78 97.1448 124.273 97.4343C124.765 97.7142 125.127 98.0906 125.358 98.5635C125.6 99.0268 125.701 99.5335 125.662 100.084L123.969 100.503C124.065 99.5383 123.964 98.8 123.665 98.2885C123.375 97.7673 122.941 97.5067 122.362 97.5067C121.744 97.5067 121.266 97.7673 120.928 98.2885C120.6 98.8096 120.436 99.6734 120.436 100.88V103.24C120.436 104.436 120.624 105.3 121.001 105.831C121.377 106.362 121.951 106.627 122.724 106.627C123.042 106.627 123.336 106.569 123.607 106.454C123.887 106.338 124.118 106.14 124.302 105.86C124.495 105.57 124.615 105.165 124.663 104.644L125.706 104.919C125.571 105.459 125.354 105.894 125.054 106.222C124.755 106.55 124.403 106.786 123.998 106.931C123.602 107.066 123.177 107.134 122.724 107.134Z" fill="black"/>
<path d="M136.597 104.499H137.002V106.989H130.126V106.584L130.922 106.482C131.076 106.463 131.168 106.425 131.197 106.367C131.226 106.299 131.241 106.101 131.241 105.773V98.3608C131.241 98.0327 131.226 97.8397 131.197 97.7818C131.168 97.7142 131.076 97.6708 130.922 97.6515L130.126 97.5501V97.1448H134.093V97.5501L133.296 97.6515C133.142 97.6708 133.05 97.7142 133.021 97.7818C132.992 97.8397 132.978 98.0327 132.978 98.3608V106.482H135.352C135.584 106.482 135.748 106.478 135.844 106.468C135.941 106.449 136.004 106.415 136.032 106.367C136.071 106.309 136.105 106.222 136.134 106.106L136.597 104.499Z" fill="black"/>
<path d="M137.831 97.5501V97.1448H141.798V97.5501L141.001 97.6515C140.847 97.6708 140.755 97.7142 140.726 97.7818C140.697 97.8397 140.683 98.0327 140.683 98.3608V105.773C140.683 106.101 140.697 106.299 140.726 106.367C140.755 106.425 140.847 106.463 141.001 106.482L141.798 106.584V106.989H137.831V106.584L138.627 106.482C138.782 106.463 138.873 106.425 138.902 106.367C138.931 106.299 138.946 106.101 138.946 105.773V98.3608C138.946 98.0327 138.931 97.8397 138.902 97.7818C138.873 97.7142 138.782 97.6708 138.627 97.6515L137.831 97.5501Z" fill="black"/>
<path d="M143.048 97.5501V97.1448H147.043C147.815 97.1448 148.428 97.2509 148.882 97.4633C149.336 97.6756 149.659 97.9555 149.852 98.3029C150.055 98.6504 150.156 99.0364 150.156 99.4611V99.852C150.156 100.354 149.997 100.788 149.678 101.155C149.369 101.512 148.916 101.768 148.317 101.922C149.051 102.048 149.611 102.308 149.997 102.704C150.392 103.1 150.59 103.597 150.59 104.195V104.6C150.59 105.035 150.489 105.435 150.286 105.802C150.084 106.159 149.746 106.449 149.273 106.671C148.81 106.883 148.187 106.989 147.405 106.989H143.048V106.584L143.844 106.482C143.998 106.463 144.09 106.425 144.119 106.367C144.148 106.299 144.162 106.101 144.162 105.773V98.3608C144.162 98.0327 144.148 97.8397 144.119 97.7818C144.09 97.7142 143.998 97.6708 143.844 97.6515L143.048 97.5501ZM147.043 97.6515H145.9V101.705H147.043C147.458 101.705 147.772 101.565 147.984 101.285C148.197 100.996 148.303 100.542 148.303 99.9244V99.4611C148.303 98.8338 148.197 98.3753 147.984 98.0858C147.772 97.7962 147.458 97.6515 147.043 97.6515ZM147.405 102.212H145.9V106.482H147.405C147.84 106.482 148.168 106.338 148.39 106.048C148.621 105.749 148.737 105.266 148.737 104.6V104.123C148.737 102.849 148.293 102.212 147.405 102.212Z" fill="black"/>
<path d="M151.969 97.5501V97.1448H156.341C157.354 97.1448 158.136 97.3716 158.686 97.8252C159.236 98.2788 159.511 98.8868 159.511 99.6493V99.9823C159.511 100.561 159.352 101.054 159.033 101.459C158.715 101.864 158.256 102.154 157.658 102.328L159.468 105.773C159.584 105.985 159.67 106.14 159.728 106.236C159.786 106.333 159.839 106.396 159.888 106.425C159.945 106.444 160.023 106.463 160.119 106.482L160.771 106.584V106.989H158.063L155.877 102.501H154.821V105.773C154.821 106.101 154.835 106.299 154.864 106.367C154.893 106.425 154.985 106.463 155.139 106.482L155.935 106.584V106.989H151.969V106.584L152.765 106.482C152.919 106.463 153.011 106.425 153.04 106.367C153.069 106.299 153.083 106.101 153.083 105.773V98.3608C153.083 98.0327 153.069 97.8397 153.04 97.7818C153.011 97.7142 152.919 97.6708 152.765 97.6515L151.969 97.5501ZM156.341 97.6515H154.821V101.995H156.341C156.765 101.995 157.089 101.864 157.311 101.604C157.542 101.333 157.658 100.841 157.658 100.127V99.5045C157.658 98.7903 157.542 98.3029 157.311 98.0423C157.089 97.7818 156.765 97.6515 156.341 97.6515Z" fill="black"/>
<path d="M163.483 106.584V106.989H160.689V106.584L161.485 106.482C161.592 106.463 161.669 106.444 161.717 106.425C161.765 106.396 161.809 106.333 161.847 106.236C161.886 106.14 161.939 105.985 162.007 105.773L164.772 97.1448H166.017L168.796 105.773C168.864 105.985 168.917 106.14 168.956 106.236C168.994 106.333 169.038 106.396 169.086 106.425C169.144 106.444 169.221 106.463 169.317 106.482L170.114 106.584V106.989H166.118V106.584L166.914 106.482C167.069 106.463 167.151 106.425 167.16 106.367C167.18 106.299 167.136 106.101 167.03 105.773L166.48 103.978H163.136L162.571 105.773C162.475 106.101 162.431 106.299 162.441 106.367C162.45 106.425 162.533 106.463 162.687 106.482L163.483 106.584ZM163.309 103.471H166.321L164.83 98.6649L163.309 103.471Z" fill="black"/>
<path d="M170.645 97.5501V97.1448H175.017C176.03 97.1448 176.812 97.3716 177.362 97.8252C177.912 98.2788 178.187 98.8868 178.187 99.6493V99.9823C178.187 100.561 178.028 101.054 177.709 101.459C177.391 101.864 176.932 102.154 176.334 102.328L178.144 105.773C178.259 105.985 178.346 106.14 178.404 106.236C178.462 106.333 178.515 106.396 178.564 106.425C178.621 106.444 178.699 106.463 178.795 106.482L179.447 106.584V106.989H176.739L174.553 102.501H173.497V105.773C173.497 106.101 173.511 106.299 173.54 106.367C173.569 106.425 173.661 106.463 173.815 106.482L174.611 106.584V106.989H170.645V106.584L171.441 106.482C171.595 106.463 171.687 106.425 171.716 106.367C171.745 106.299 171.759 106.101 171.759 105.773V98.3608C171.759 98.0327 171.745 97.8397 171.716 97.7818C171.687 97.7142 171.595 97.6708 171.441 97.6515L170.645 97.5501ZM175.017 97.6515H173.497V101.995H175.017C175.441 101.995 175.765 101.864 175.987 101.604C176.218 101.333 176.334 100.841 176.334 100.127V99.5045C176.334 98.7903 176.218 98.3029 175.987 98.0423C175.765 97.7818 175.441 97.6515 175.017 97.6515Z" fill="black"/>
<path d="M185.626 106.584V106.989H181.659V106.584L182.455 106.482C182.61 106.463 182.702 106.425 182.731 106.367C182.759 106.299 182.774 106.101 182.774 105.773V102.776L180.472 98.3608C180.356 98.1389 180.269 97.9844 180.212 97.8976C180.154 97.8011 180.096 97.7383 180.038 97.7094C179.99 97.6804 179.917 97.6611 179.821 97.6515L179.024 97.5501V97.1448H183.15V97.5501L182.354 97.6515C182.209 97.6708 182.137 97.7142 182.137 97.7818C182.137 97.8397 182.214 98.0327 182.369 98.3608L184.236 102.096L186.176 98.3608C186.34 98.0423 186.417 97.8493 186.408 97.7818C186.408 97.7142 186.335 97.6708 186.191 97.6515L185.394 97.5501V97.1448H188.217V97.5501L187.421 97.6515C187.325 97.6611 187.247 97.6804 187.189 97.7094C187.141 97.7383 187.088 97.8011 187.03 97.8976C186.982 97.9844 186.9 98.1389 186.784 98.3608L184.511 102.747V105.773C184.511 106.101 184.526 106.299 184.555 106.367C184.584 106.425 184.675 106.463 184.83 106.482L185.626 106.584Z" fill="black"/>
</svg>
